<?xml version="1.0" encoding="UTF-8" standalone="no"?>
<!-- Generator: Adobe Illustrator 15.1.0, SVG Export Plug-In . SVG Version: 6.00 Build 0)  -->

<svg
   xmlns:dc="http://purl.org/dc/elements/1.1/"
   xmlns:cc="http://creativecommons.org/ns#"
   xmlns:rdf="http://www.w3.org/1999/02/22-rdf-syntax-ns#"
   xmlns:svg="http://www.w3.org/2000/svg"
   xmlns="http://www.w3.org/2000/svg"
   xmlns:sodipodi="http://sodipodi.sourceforge.net/DTD/sodipodi-0.dtd"
   xmlns:inkscape="http://www.inkscape.org/namespaces/inkscape"
   version="1.1"
   x="0px"
   y="0px"
   width="612px"
   height="792px"
   viewBox="0 0 612 792"
   enable-background="new 0 0 612 792"
   xml:space="preserve"
   id="svg2"
   inkscape:version="0.48.2 r9819"
   sodipodi:docname="HackLab Logo 1.svg"><metadata
   id="metadata1042"><rdf:RDF><cc:Work
       rdf:about=""><dc:format>image/svg+xml</dc:format><dc:type
         rdf:resource="http://purl.org/dc/dcmitype/StillImage" /><dc:title></dc:title></cc:Work></rdf:RDF></metadata><defs
   id="defs1040">
	
	
	
	
	
	
	
	
	
	
	
	
	
	
	
	
	
	
	
	
	
	
	
	
	
	
	
	
	
	
	
	
	
	
	
	
	
	
	
	
	
	
</defs><sodipodi:namedview
   pagecolor="#ffffff"
   bordercolor="#666666"
   borderopacity="1"
   objecttolerance="10"
   gridtolerance="10"
   guidetolerance="10"
   inkscape:pageopacity="0"
   inkscape:pageshadow="2"
   inkscape:window-width="1277"
   inkscape:window-height="755"
   id="namedview1038"
   showgrid="false"
   inkscape:zoom="0.59485186"
   inkscape:cx="160.93164"
   inkscape:cy="475.11438"
   inkscape:window-x="0"
   inkscape:window-y="0"
   inkscape:window-maximized="0"
   inkscape:current-layer="svg2" />

<g
   id="g4553"><g
     transform="translate(3.3621816,-381.60761)"
     id="g872">
		<path
   d="m 205.058,725.408 h 32.508 c 0.089,0.012 0.134,0.058 0.134,0.133 v 27.401 c 0,0.077 -0.044,0.116 -0.134,0.116 h -32.508 c -0.089,0 -0.134,-0.039 -0.134,-0.116 v -27.401 c 0.013,-0.089 0.056,-0.133 0.134,-0.133 z m 8.214,7.558 v 12.552 h 16.081 v -12.552 h -16.081 z"
   id="path874"
   inkscape:connector-curvature="0"
   style="fill:#009634" />
		<path
   d="m 239.822,725.408 h 32.469 c 0.077,0.012 0.115,0.05 0.115,0.114 v 7.31 c 0,0.075 -0.038,0.114 -0.115,0.114 h -24.256 v 12.571 h 24.256 c 0.077,0.015 0.115,0.054 0.115,0.115 v 7.31 c 0,0.077 -0.038,0.116 -0.115,0.116 h -32.469 c -0.09,0 -0.135,-0.039 -0.135,-0.116 v -12.379 c 0,-0.594 -0.019,-1.022 -0.058,-1.29 0.039,-0.361 0.058,-0.816 0.058,-1.371 v -12.38 c 0.012,-0.075 0.057,-0.114 0.135,-0.114 z"
   id="path876"
   inkscape:connector-curvature="0"
   style="fill:#009634" />
		<path
   d="m 274.488,725.408 h 8.022 c 0.09,0.012 0.135,0.05 0.135,0.114 v 9.662 h 16.138 v -9.662 c 0.013,-0.075 0.052,-0.114 0.117,-0.114 h 8.097 c 0.092,0.012 0.137,0.05 0.137,0.114 v 27.42 c 0,0.077 -0.045,0.116 -0.137,0.116 H 298.9 c -0.076,0 -0.117,-0.039 -0.117,-0.116 v -9.602 h -16.138 v 9.602 c 0,0.077 -0.045,0.116 -0.135,0.116 h -8.022 c -0.089,0 -0.134,-0.039 -0.134,-0.116 v -27.42 c 0.012,-0.075 0.058,-0.114 0.134,-0.114 z"
   id="path878"
   inkscape:connector-curvature="0"
   style="fill:#009634" />
		<path
   d="m 309.193,725.408 h 32.51 c 0.088,0.012 0.135,0.05 0.135,0.114 v 27.42 c 0,0.077 -0.047,0.116 -0.135,0.116 h -8.1 c -0.076,0 -0.114,-0.039 -0.114,-0.116 v -9.777 H 317.41 v 9.777 c 0,0.077 -0.041,0.116 -0.117,0.116 h -8.1 c -0.088,0 -0.135,-0.039 -0.135,-0.116 v -27.42 c 0.013,-0.075 0.059,-0.114 0.135,-0.114 z m 8.217,7.691 v 2.587 h 16.079 v -2.587 H 317.41 z"
   id="path880"
   inkscape:connector-curvature="0"
   style="fill:#009634" />
		<path
   d="m 378.606,725.408 h 32.509 c 0.089,0.012 0.133,0.05 0.133,0.114 v 27.42 c 0,0.077 -0.044,0.116 -0.133,0.116 h -8.1 c -0.076,0 -0.113,-0.039 -0.113,-0.116 v -9.777 H 386.82 v 9.777 c 0,0.077 -0.039,0.116 -0.114,0.116 h -8.1 c -0.089,0 -0.137,-0.039 -0.137,-0.116 v -27.42 c 0.014,-0.075 0.059,-0.114 0.137,-0.114 z m 8.214,7.691 v 2.587 h 16.082 v -2.587 H 386.82 z"
   id="path882"
   inkscape:connector-curvature="0"
   style="fill:#009634" />
		<path
   d="m 413.311,725.408 h 32.528 c 0.078,0.012 0.116,0.05 0.116,0.114 v 27.42 c 0,0.077 -0.038,0.116 -0.116,0.116 h -8.117 c -0.078,0 -0.114,-0.039 -0.114,-0.116 v -19.919 h -3.895 v 19.919 c 0,0.077 -0.048,0.116 -0.137,0.116 h -8.097 c -0.078,0 -0.117,-0.039 -0.117,-0.116 v -19.919 h -3.836 v 19.919 c 0,0.077 -0.039,0.116 -0.114,0.116 h -8.102 c -0.087,0 -0.132,-0.039 -0.132,-0.116 v -27.42 c 0.013,-0.075 0.056,-0.114 0.133,-0.114 z"
   id="path884"
   inkscape:connector-curvature="0"
   style="fill:#009634" />
		<path
   d="m 448.02,725.408 h 32.525 c 0.078,0.012 0.116,0.05 0.116,0.114 v 27.42 c 0,0.077 -0.038,0.116 -0.116,0.116 H 448.02 c -0.09,0 -0.137,-0.039 -0.137,-0.116 v -27.42 c 0.013,-0.075 0.057,-0.114 0.137,-0.114 z m 8.209,7.538 v 2.546 h 16.082 v -2.546 h -16.082 z m 0,10.086 v 2.485 h 16.082 v -2.485 h -16.082 z"
   id="path886"
   inkscape:connector-curvature="0"
   style="fill:#009634" />
		<path
   d="m 482.723,725.408 h 32.509 c 0.089,0.012 0.136,0.05 0.136,0.114 v 27.42 c 0,0.077 -0.047,0.116 -0.136,0.116 h -8.098 c -0.078,0 -0.116,-0.039 -0.116,-0.116 v -9.777 h -16.08 v 9.777 c 0,0.077 -0.037,0.116 -0.115,0.116 h -8.1 c -0.089,0 -0.132,-0.039 -0.132,-0.116 v -27.42 c 0.011,-0.075 0.054,-0.114 0.132,-0.114 z m 8.215,7.691 v 2.587 h 16.08 v -2.587 h -16.08 z"
   id="path888"
   inkscape:connector-curvature="0"
   style="fill:#009634" />
		<g
   id="g890">
			<polygon
   points="197.831,745.521 190.178,745.521 170.255,749.366 170.255,750.844 "
   id="polygon892"
   style="fill:#009634" />
			<path
   d="m 202.975,749.208 v -1.828 c -0.086,0.002 -0.177,10e-4 -0.246,0.017 l -29.326,5.662 h 7.792 l 20.45,-3.948 c 0.414,-0.073 0.893,-0.027 1.33,0.097 z"
   id="path894"
   inkscape:connector-curvature="0"
   style="fill:#009634" />
			<path
   d="m 201.763,749.722 -17.284,3.337 h 8.199 l 8.339,-1.611 c 0.631,-0.109 1.411,0.036 1.958,0.353 v -1.941 c -0.382,-0.139 -0.901,-0.209 -1.212,-0.138 z"
   id="path896"
   inkscape:connector-curvature="0"
   style="fill:#009634" />
			<path
   d="m 192.642,725.409 h -22.251 c -0.079,0 -0.123,0.038 -0.135,0.116 v 12.379 c 0,0.552 -0.019,1.01 -0.057,1.367 0.038,0.271 0.057,0.701 0.057,1.293 v 5.95 l 8.349,-1.612 v -11.954 h 24.256 c 0.076,0 0.114,-0.039 0.114,-0.116 v -6.715 c 0,-0.479 0.051,-0.708 -0.391,-0.708 h -9.619 -0.323 z"
   id="path898"
   inkscape:connector-curvature="0"
   style="fill:#009634" />
			<path
   d="m 170.289,753.027 32.321,-6.24 c 0.116,-0.021 0.24,-0.023 0.364,-0.026 v -1.126 c 0,-0.064 -0.038,-0.103 -0.114,-0.114 h -1.76 l -30.844,5.955 v 1.467 c -0.001,0.037 0.012,0.065 0.033,0.084 z"
   id="path900"
   inkscape:connector-curvature="0"
   style="fill:#009634" />
			<path
   d="m 202.975,752.942 v -0.395 l -0.318,-0.204 c -0.34,-0.229 -1.113,-0.374 -1.522,-0.286 l -5.18,1.001 h 6.906 c 0.076,10e-4 0.114,-0.038 0.114,-0.116 z"
   id="path902"
   inkscape:connector-curvature="0"
   style="fill:#009634" />
			<polygon
   points="170.255,748.73 186.888,745.521 178.687,745.521 170.255,747.148 "
   id="polygon904"
   style="fill:#009634" />
		</g>
		<g
   id="g906">
			<path
   d="m 376.544,752.942 v -0.386 l -0.502,0.502 h 0.386 c 0.078,10e-4 0.116,-0.038 0.116,-0.116 z"
   id="path908"
   inkscape:connector-curvature="0"
   style="fill:#009634" />
			<polygon
   points="375.122,753.059 376.544,751.635 376.544,749.615 373.101,753.059 "
   id="polygon910"
   style="fill:#009634" />
			<path
   d="m 357.358,725.409 1.658,1.714 5.824,5.825 h 2.98 l -7.434,-7.539 h -16.488 c -0.078,0 -0.121,0.038 -0.132,0.116 v 27.417 c 0,0.077 0.042,0.116 0.132,0.116 h 18.939 l 6.876,-6.877 c 0.305,-0.288 0.608,-1.019 0.594,-1.44 v -4.56 c 0.012,-0.418 -0.292,-1.151 -0.596,-1.438 l -3.249,-3.249 h -14.351 v -2.546 h 11.806 l -4.395,-4.394 -3.047,-3.146 h 0.883 z m 10.836,17.622 v 2.489 h -16.081 v -2.489 h 16.081 z"
   id="path912"
   inkscape:connector-curvature="0"
   style="fill:#009634" />
			<path
   d="m 372.664,745.503 v -6.809 c 0.009,-0.419 -0.294,-1.148 -0.598,-1.44 l -3.872,-3.928 v 2.168 h -0.807 l 2.786,2.788 c 0.459,0.474 0.777,1.243 0.79,1.9 l -0.002,4.559 c -0.011,0.657 -0.33,1.43 -0.789,1.899 l -6.418,6.418 h 2.192 l 6.118,-6.118 c 0.307,-0.284 0.612,-1.017 0.6,-1.437 z"
   id="path914"
   inkscape:connector-curvature="0"
   style="fill:#009634" />
			<path
   d="m 376.544,748.691 v -22.412 l -0.87,-0.87 h -2.538 l 1.755,1.755 c 0.455,0.472 0.779,1.246 0.789,1.9 l -0.004,17.187 c -0.007,0.656 -0.326,1.431 -0.785,1.902 l -4.905,4.905 h 2.191 l 4.367,-4.367 z"
   id="path916"
   inkscape:connector-curvature="0"
   style="fill:#009634" />
			<path
   d="m 375.026,746.252 -0.003,-17.188 c 0.014,-0.418 -0.291,-1.15 -0.594,-1.438 l -2.216,-2.217 h -10.911 l 11.224,11.387 c 0.457,0.473 0.777,1.242 0.786,1.898 l 0.004,6.808 c -0.013,0.657 -0.334,1.431 -0.788,1.902 l -5.654,5.654 h 2.188 l 5.366,-5.367 c 0.305,-0.289 0.609,-1.019 0.598,-1.439 z"
   id="path918"
   inkscape:connector-curvature="0"
   style="fill:#009634" />
		</g>
	</g><g
     transform="translate(3.3621816,-381.60761)"
     id="g920">
		<path
   d="m 269.679,714.757 v 0.059 c 0,-0.021 0,-0.04 0,-0.059 z"
   id="path922"
   inkscape:connector-curvature="0"
   style="fill:#ffffff" />
	</g><g
     transform="translate(3.3621816,-381.60761)"
     id="g924">
		<path
   d="m 319.326,718.361 c 0,0.11 0.063,0.164 0.193,0.164 h 0.078 l -0.271,-0.271 v 0.107 z"
   id="path926"
   inkscape:connector-curvature="0"
   style="fill:#ffffff" />
	</g><g
     transform="translate(3.3621816,-381.60761)"
     id="g928">
		<g
   id="g930">
			<path
   d="m 220.092,678.932 h 46.553 c 0.128,0.02 0.194,0.073 0.194,0.166 v 39.264 c 0,0.11 -0.066,0.164 -0.194,0.164 h -11.597 c -0.111,0 -0.167,-0.054 -0.167,-0.164 v -13.999 h -23.027 v 13.999 c 0,0.11 -0.055,0.164 -0.166,0.164 h -11.596 c -0.13,0 -0.194,-0.054 -0.194,-0.164 v -39.264 c 0.017,-0.111 0.082,-0.166 0.194,-0.166 z m 11.762,11.016 v 3.7 h 23.027 v -3.7 h -23.027 z"
   id="path932"
   inkscape:connector-curvature="0" />
			<path
   d="m 269.874,678.932 h 46.5 c 0.108,0.02 0.166,0.073 0.166,0.166 v 10.465 c 0,0.109 -0.058,0.166 -0.166,0.166 h -34.737 v 18.002 h 34.737 c 0.108,0.019 0.166,0.073 0.166,0.165 v 10.466 c 0,0.11 -0.058,0.164 -0.166,0.164 h -46.5 c -0.127,0 -0.194,-0.054 -0.194,-0.164 v -17.727 c 0,-0.847 -0.027,-1.463 -0.081,-1.851 0.054,-0.515 0.081,-1.169 0.081,-1.959 v -17.728 c 0.019,-0.11 0.084,-0.165 0.194,-0.165 z"
   id="path934"
   inkscape:connector-curvature="0" />
			<path
   d="m 319.52,678.932 h 11.652 c 0.127,0.02 0.191,0.073 0.191,0.166 v 13.917 h 0.083 c 14.065,-8.615 21.777,-13.31 23.139,-14.083 h 11.487 c 0.13,0.02 0.191,0.073 0.191,0.166 v 4.971 c -0.35,0.331 -4.627,2.87 -12.837,7.62 -1.603,0.994 -2.413,1.527 -2.431,1.602 v 10.878 c 0.165,0.223 5.229,3.24 15.186,9.057 l 0.082,0.166 v 4.971 c 0,0.11 -0.062,0.164 -0.191,0.164 h -11.375 c -0.203,0 -4.483,-2.567 -12.84,-7.702 -6.737,-4.179 -10.236,-6.306 -10.494,-6.377 v 13.915 c 0,0.11 -0.064,0.164 -0.191,0.164 H 319.52 c -0.13,0 -0.193,-0.054 -0.193,-0.164 v -39.264 c 0.018,-0.112 0.083,-0.167 0.193,-0.167 z"
   id="path936"
   inkscape:connector-curvature="0" />
			<path
   d="m 418.919,678.932 h 46.554 c 0.127,0.02 0.195,0.073 0.195,0.166 v 39.264 c 0,0.11 -0.068,0.164 -0.195,0.164 h -11.597 c -0.111,0 -0.165,-0.054 -0.165,-0.164 v -13.999 h -23.027 v 13.999 c 0,0.11 -0.056,0.164 -0.168,0.164 h -11.597 c -0.129,0 -0.193,-0.054 -0.193,-0.164 v -39.264 c 0.019,-0.111 0.082,-0.166 0.193,-0.166 z m 11.765,11.016 v 3.7 h 23.027 v -3.7 h -23.027 z"
   id="path938"
   inkscape:connector-curvature="0" />
			<path
   d="m 468.621,678.932 h 46.58 c 0.111,0.02 0.165,0.073 0.165,0.166 v 39.264 c 0,0.11 -0.054,0.164 -0.165,0.164 h -46.58 c -0.132,0 -0.192,-0.054 -0.192,-0.164 v -39.264 c 0.018,-0.111 0.08,-0.166 0.192,-0.166 z m 11.762,10.797 v 3.646 h 23.027 v -3.646 h -23.027 z m 0,14.439 v 3.562 h 23.027 v -3.562 h -23.027 z"
   id="path940"
   inkscape:connector-curvature="0" />
		</g>
		<g
   id="g942">
			<path
   d="m 175.786,679.287 0.354,-0.355 h -5.75 c -0.11,0 -0.175,0.056 -0.192,0.166 v 0.786 h 4.152 c 0.414,0.009 1.15,-0.292 1.436,-0.597 z"
   id="path944"
   inkscape:connector-curvature="0" />
			<path
   d="m 185.815,692.931 h -1.279 c 0.192,0.111 0.402,0.192 0.638,0.192 0.239,0 0.449,-0.081 0.641,-0.192 z"
   id="path946"
   inkscape:connector-curvature="0" />
			<path
   d="m 174.917,682.494 h 0.655 c 0.42,0.01 1.151,-0.294 1.438,-0.598 l 0.861,-0.856 c 0.47,-0.458 1.241,-0.778 1.901,-0.789 h 2.298 v -1.153 c 0,-0.093 -0.063,-0.146 -0.192,-0.166 h -4.814 l -0.816,0.814 c -0.472,0.457 -1.241,0.776 -1.896,0.79 H 170.2 v 5.561 l 2.817,-2.817 c 0.473,-0.455 1.244,-0.776 1.9,-0.786 z"
   id="path948"
   inkscape:connector-curvature="0" />
			<path
   d="m 175.516,688.307 -4.895,4.897 c -0.123,0.119 -0.267,0.227 -0.422,0.323 v 2.002 c 0.426,-0.025 1.08,-0.302 1.349,-0.586 l 2.775,-2.774 c 0.471,-0.456 1.243,-0.776 1.903,-0.787 h 5.845 v -3.672 h -5.114 c -0.419,-0.01 -1.151,0.294 -1.441,0.597 z"
   id="path950"
   inkscape:connector-curvature="0" />
			<path
   d="m 198.267,701.485 c -0.72,0 -1.308,0.584 -1.308,1.305 0,0.719 0.588,1.302 1.308,1.302 0.72,0 1.304,-0.583 1.304,-1.302 -0.001,-0.721 -0.585,-1.305 -1.304,-1.305 z"
   id="path952"
   inkscape:connector-curvature="0" />
			<path
   d="m 174.453,686.024 -4.255,4.26 v 2.42 l 4.859,-4.857 c 0.47,-0.456 1.241,-0.777 1.898,-0.787 h 5.114 v -1.632 h -6.171 c -0.42,-0.011 -1.154,0.292 -1.445,0.596 z"
   id="path954"
   inkscape:connector-curvature="0" />
			<path
   d="m 178.456,704.106 c 0.717,0 1.301,-0.584 1.301,-1.304 0,-0.721 -0.584,-1.305 -1.301,-1.305 -0.725,0 -1.309,0.584 -1.309,1.305 0,0.72 0.584,1.304 1.309,1.304 z"
   id="path956"
   inkscape:connector-curvature="0" />
			<circle
   d="m 201.585,696.29102 c 0,0.72073 -0.58427,1.305 -1.305,1.305 -0.72073,0 -1.305,-0.58427 -1.305,-1.305 0,-0.72074 0.58427,-1.305 1.305,-1.305 0.72073,0 1.305,0.58426 1.305,1.305 z"
   cx="200.28"
   cy="696.29102"
   r="1.3049999"
   id="circle958"
   sodipodi:cx="200.28"
   sodipodi:cy="696.29102"
   sodipodi:rx="1.3049999"
   sodipodi:ry="1.3049999" />
			<path
   d="m 205.182,712.784 v 2.578 0.226 1.748 0.229 0.797 c 0,0.11 0.055,0.164 0.166,0.164 h 11.596 c 0.13,0 0.194,-0.054 0.194,-0.164 v -0.797 -0.229 -1.748 -0.226 -2.739 -0.225 -33.301 c 0,-0.093 -0.064,-0.146 -0.194,-0.166 h -11.596 c -0.094,0 -0.147,0.056 -0.166,0.166 v 13.833 h -18.3 c -0.391,0.574 -1.048,0.951 -1.797,0.951 -0.746,0 -1.405,-0.377 -1.797,-0.951 h -1.218 v -0.897 h -5.845 c -0.421,-0.013 -1.154,0.292 -1.442,0.597 l -2.775,2.776 c -0.451,0.437 -1.172,0.738 -1.809,0.774 v 1.616 h 0.751 c 0.42,0.011 1.149,-0.291 1.44,-0.598 l 2.421,-2.422 c 0.472,-0.457 1.246,-0.774 1.903,-0.786 h 3.368 c 0.657,0.012 1.429,0.329 1.903,0.786 l 0.422,0.424 c 0.288,0.305 1.02,0.609 1.44,0.596 h 14.338 c 0.217,-0.969 1.084,-1.696 2.12,-1.696 1.203,0 2.176,0.972 2.176,2.173 0,1.202 -0.973,2.174 -2.176,2.174 -1.143,0 -2.075,-0.878 -2.164,-1.996 h -14.293 c -0.657,-0.014 -1.429,-0.331 -1.903,-0.787 l -0.42,-0.424 c -0.288,-0.307 -1.022,-0.608 -1.442,-0.595 h -3.368 c -0.422,-0.014 -1.156,0.288 -1.44,0.595 l -2.424,2.421 c -0.474,0.456 -1.243,0.776 -1.9,0.786 H 170.2 v 1.522 h 1.511 c 0.421,0.013 1.152,-0.29 1.44,-0.596 l 2.858,-2.855 c 0.471,-0.458 1.243,-0.776 1.903,-0.788 h 0.87 c 0.655,0.012 1.427,0.33 1.896,0.788 l 0.955,0.954 c 0.292,0.304 1.022,0.607 1.44,0.596 h 10.169 c 0.655,0.012 1.427,0.331 1.899,0.788 l 2.001,1.996 0.042,0.059 c 0.367,-0.278 0.562,-0.288 1.058,-0.288 1.198,0 2.173,0.975 2.173,2.177 0,0.759 -0.391,1.424 -0.979,1.812 h 5.747 v 7.947 0.225 z"
   id="path960"
   inkscape:connector-curvature="0" />
			<path
   d="m 170.198,717.564 v 0.797 c 0,0.11 0.062,0.164 0.192,0.164 h 11.486 c 0.129,0 0.192,-0.054 0.192,-0.164 v -0.797 -0.229 -1.748 -0.225 -2.266 -0.228 -8.258 h 14.975 c -0.59,-0.389 -0.981,-1.054 -0.981,-1.812 0,-0.581 0.232,-1.107 0.604,-1.498 l -1.988,-1.985 c -0.288,-0.306 -1.017,-0.607 -1.438,-0.598 l -10.169,0.002 c -0.655,-0.012 -1.429,-0.33 -1.898,-0.789 l -0.957,-0.952 c -0.286,-0.305 -1.018,-0.609 -1.436,-0.597 h -0.87 c -0.423,-0.013 -1.154,0.292 -1.445,0.597 l -2.855,2.856 c -0.472,0.455 -1.241,0.775 -1.901,0.787 h -1.511 v 1.632 l 6.131,-0.001 0,0 c 0.183,-0.809 0.923,-1.631 2.122,-1.631 1.201,0 2.176,0.975 2.176,2.177 0,1.2 -0.975,2.172 -2.176,2.172 -1.199,0 -2.176,-1.087 -2.176,-2.064 l 0,0 h -6.078 v 14.429 0.229 z"
   id="path962"
   inkscape:connector-curvature="0" />
			<path
   d="m 179.771,680.902 c -0.418,-0.011 -1.154,0.293 -1.44,0.597 l -0.861,0.857 c -0.469,0.458 -1.241,0.778 -1.898,0.788 h -0.655 c -0.416,-0.01 -1.147,0.293 -1.438,0.597 l -3.28,3.279 v 2.341 l 3.799,-3.8 c 0.47,-0.455 1.241,-0.774 1.901,-0.785 h 6.171 v -3.874 h -2.299 z"
   id="path964"
   inkscape:connector-curvature="0" />
		</g>
		<g
   id="g966">
			<rect
   x="396.38501"
   y="707.72998"
   width="1.549"
   height="10.795"
   id="rect968" />
			<rect
   x="398.58701"
   y="707.72998"
   width="1.548"
   height="10.795"
   id="rect970" />
			<path
   d="m 380.5,709.162 c 0.781,0 1.201,-0.635 1.148,-1.432 h -0.666 v -0.8 c -0.15,-0.061 -0.32,-0.122 -0.491,-0.122 -0.568,0 -1.089,0.513 -1.089,1.237 0,0.72 0.636,1.117 1.098,1.117 z"
   id="path972"
   inkscape:connector-curvature="0" />
			<rect
   x="400.79001"
   y="707.72998"
   width="1.55"
   height="10.795"
   id="rect974" />
			<path
   d="m 388.133,717.782 c -0.519,0 -0.957,0.308 -1.168,0.743 h 2.332 c -0.211,-0.435 -0.648,-0.743 -1.164,-0.743 z"
   id="path976"
   inkscape:connector-curvature="0" />
			<path
   d="m 379.52,701.243 c 0,0.719 0.583,1.304 1.304,1.304 0.057,0 0.104,-0.024 0.159,-0.033 v -2.544 c -0.055,-0.007 -0.103,-0.032 -0.159,-0.032 -0.721,0 -1.304,0.583 -1.304,1.305 z"
   id="path978"
   inkscape:connector-curvature="0" />
			<path
   d="m 371.238,717.368 c -0.163,-0.702 -0.893,-1.159 -1.614,-1.159 -0.22,0 -0.417,0.067 -0.599,0.163 v 1.989 c 0,0.11 0.062,0.164 0.192,0.164 h 1.912 c 0.258,-0.359 0.204,-0.751 0.109,-1.157 z"
   id="path980"
   inkscape:connector-curvature="0" />
			<circle
   d="m 380.01601,695.22302 c 0,0.71963 -0.58337,1.303 -1.303,1.303 -0.71962,0 -1.303,-0.58337 -1.303,-1.303 0,-0.71962 0.58338,-1.303 1.303,-1.303 0.71963,0 1.303,0.58338 1.303,1.303 z"
   cx="378.71301"
   cy="695.22302"
   r="1.303"
   id="circle982"
   sodipodi:cx="378.71301"
   sodipodi:cy="695.22302"
   sodipodi:rx="1.303"
   sodipodi:ry="1.303" />
			<path
   d="m 377.547,704.384 1.858,1.858 c 0.344,-0.229 0.756,-0.361 1.201,-0.361 0.129,0 0.253,0.016 0.376,0.037 v -2.545 c -0.018,0.002 -0.033,0.005 -0.049,0.005 -1.202,0 -2.177,-0.972 -2.177,-2.175 0,-1.201 0.975,-2.174 2.177,-2.174 0.016,0 0.031,0.004 0.049,0.004 v -19.936 c 0,-0.093 -0.057,-0.146 -0.166,-0.166 h -1.938 l -3.492,3.492 c -0.304,0.287 -0.607,1.021 -0.598,1.438 v 13.457 c -0.01,0.418 0.294,1.149 0.598,1.438 l 0.778,0.777 c 0.455,0.472 0.776,1.241 0.786,1.9 v 1.508 c -0.009,0.424 0.292,1.155 0.597,1.443 z m -0.963,-9.158 c 0,-1.203 0.972,-2.178 2.173,-2.178 1.202,0 2.175,0.975 2.175,2.178 0,1.198 -0.973,2.171 -2.175,2.171 -1.201,-0.001 -2.173,-0.973 -2.173,-2.171 z"
   id="path984"
   inkscape:connector-curvature="0" />
			<path
   d="m 369.025,679.098 v 2.194 l 2.361,-2.36 h -2.169 c -0.109,0 -0.173,0.055 -0.192,0.166 z"
   id="path986"
   inkscape:connector-curvature="0" />
			<path
   d="m 388.423,712.351 c 0,0.721 0.588,1.305 1.309,1.305 0.718,0 1.301,-0.584 1.301,-1.305 0,-0.722 -0.583,-1.306 -1.301,-1.306 -0.721,0 -1.309,0.584 -1.309,1.306 z"
   id="path988"
   inkscape:connector-curvature="0" />
			<path
   d="m 415.773,707.73 h -12.786 v 10.795 h 12.786 c 0.128,0 0.19,-0.054 0.19,-0.164 v -10.466 c 10e-4,-0.091 -0.062,-0.146 -0.19,-0.165 z"
   id="path990"
   inkscape:connector-curvature="0" />
			<circle
   d="m 373.45,702.547 c 0,0.72018 -0.58382,1.304 -1.304,1.304 -0.72018,0 -1.304,-0.58382 -1.304,-1.304 0,-0.72018 0.58382,-1.304 1.304,-1.304 0.72018,0 1.304,0.58382 1.304,1.304 z"
   cx="372.146"
   cy="702.547"
   r="1.304"
   id="circle992"
   sodipodi:cx="372.146"
   sodipodi:cy="702.547"
   sodipodi:rx="1.304"
   sodipodi:ry="1.304" />
			<path
   d="m 369.025,706.734 v 2.297 1.02 5.742 c 0.223,-0.077 0.459,-0.127 0.709,-0.127 1.2,0 2.174,0.971 2.174,2.175 0,0.241 -0.049,0.468 -0.121,0.685 h 14.233 c 0.209,-0.984 1.081,-1.722 2.124,-1.722 1.047,0 1.917,0.737 2.127,1.722 h 3.381 v -1.38 c 0.011,-0.42 -0.291,-1.153 -0.6,-1.44 l -1.78,-1.781 c -0.391,0.367 -0.912,0.597 -1.493,0.597 -1.203,0 -2.179,-0.973 -2.179,-2.175 0,-1.199 0.976,-2.175 2.179,-2.175 1.198,0 2.174,0.976 2.174,2.175 0,0.387 -0.102,0.743 -0.276,1.059 l 1.839,1.838 c 0.459,0.473 0.778,1.244 0.787,1.903 v 1.38 h 1.429 V 707.73 h -13.286 c 0.016,0.105 0.032,0.211 0.032,0.321 0,1.203 -0.966,1.872 -1.871,1.872 -1.201,0 -1.993,-0.669 -1.993,-1.872 0,-0.521 0.001,-0.997 0.309,-1.372 l -1.838,-1.834 c -0.454,-0.473 -0.773,-1.244 -0.785,-1.903 v -1.508 c 0.012,-0.422 -0.293,-1.15 -0.595,-1.442 l -0.78,-0.775 c -0.457,-0.474 -0.775,-1.243 -0.786,-1.898 v -13.457 c 0.011,-0.655 0.329,-1.432 0.786,-1.9 l 3.029,-3.029 h -2.338 l -2.677,2.676 c -0.304,0.286 -0.605,1.021 -0.596,1.436 v 17.292 l 0,0 c 0.901,0 1.957,0.971 1.957,2.174 0,1.2 -0.975,2.174 -2.176,2.174 -1.199,0 -2.173,-0.974 -2.173,-2.174 0,-1.203 0.828,-2.174 1.74,-2.174 h 0.001 v -17.292 c 0.01,-0.655 0.329,-1.429 0.785,-1.898 l 2.214,-2.213 h -2.381 l -3.285,3.284 v 13.714 c 0.493,0.399 0.815,1.003 0.815,1.686 0,0.685 -0.322,1.286 -0.815,1.685 v 6.511 0.92 z"
   id="path994"
   inkscape:connector-curvature="0" />
		</g>
	</g><g
     transform="translate(3.3621816,-381.60761)"
     id="g996">
		<g
   id="g998">
			<polygon
   points="137.436,742.922 148.096,743.08 151.902,737.946 115.892,737.629 120.335,742.761 131.233,742.604 "
   id="polygon1000" />
			<polygon
   points="152.218,737.52 154.42,734.549 155.654,734.331 155.972,735.762 151.994,752.626 161.142,753.342 161.142,749.523 157.324,749.046 160.028,734.569 154.062,729.16 150.383,732.513 "
   id="polygon1002" />
			<polygon
   points="117.561,732.999 114.926,730.036 107.29,734.491 111.903,748.808 108.721,749.284 108.721,753.262 117.312,752.626 111.903,736.558 111.983,734.887 113.177,734.491 115.743,737.456 "
   id="polygon1004" />
		</g>
		<g
   id="g1006">
			<polygon
   points="121.374,727.759 120.661,729.541 146.105,729.722 145.553,728.017 121.377,728.017 "
   id="polygon1008" />
			<path
   d="m 109.278,718.184 2.625,-0.358 1.194,8.072 3.421,-0.514 -0.637,-7.758 5.478,-16.739 1.81,3.462 19.834,-0.163 1.578,-3.777 1.357,3.752 1.026,-0.008 -0.02,2.792 3.748,10.362 -0.671,7.756 3.603,0.518 1.257,-8.073 2.765,0.358 -1.17,7.476 3.433,0.438 2.012,-11.494 -9.132,-1.032 -6.359,-17.254 -0.013,0.017 0.013,-0.025 -10.199,0.42 -0.065,-3.083 2.189,-2.229 0.119,-9.584 -2.427,-2.823 -5.608,-0.041 -2.504,2.981 0.357,10.025 3.101,1.907 0.289,3.034 -12.3,0.506 -5.487,16.467 -8.671,1.034 1.909,11.494 3.26,-0.438 -1.115,-7.478 z m 22.314,-31.978 c 0,-1.482 0.693,-2.687 1.552,-2.687 0.855,0 1.55,1.204 1.55,2.687 0,1.483 -0.695,2.685 -1.55,2.685 -0.859,0 -1.552,-1.202 -1.552,-2.685 z"
   id="path1010"
   inkscape:connector-curvature="0" />
		</g>
	</g><g
     transform="translate(3.3621816,-381.60761)"
     id="g1012">
		<path
   d="m 143.701,724.778 h -18.887 l -0.286,-17.423 19.173,-0.074 v 17.497 z"
   id="path1014"
   inkscape:connector-curvature="0"
   style="fill:#009634" />
		<g
   id="g1016">
			<polygon
   stroke-miterlimit="10"
   points="149.369,729.745 118.976,729.529 115.673,737.626 152.376,737.95 "
   id="polygon1018"
   style="fill:#cfd1d2;stroke:#ffffff;stroke-width:0.25;stroke-miterlimit:10" />
		</g>
		<g
   id="g1020">
			<g
   id="g1022">
				<path
   clip-rule="evenodd"
   d="m 125.979,707.75 c 5.51,0 11.02,0 16.529,0 0,5.558 0,11.11 0,16.667 -5.554,0 -11.111,0 -16.665,0 0,-5.418 0,-10.838 0,-16.256 -0.013,-0.194 -0.022,-0.388 0.136,-0.411 z m 0.137,0.274 c 0,1.73 0,3.461 0,5.192 1.729,0 3.461,0 5.191,0 0,-1.731 0,-3.462 0,-5.192 -1.73,0 -3.462,0 -5.191,0 z m 5.465,0 c 0,1.73 0,3.461 0,5.192 1.729,0 3.459,0 5.189,0 0,-1.731 0,-3.462 0,-5.192 -1.73,0 -3.459,0 -5.189,0 z m 5.462,0 c 0,1.73 0,3.461 0,5.192 1.732,0 3.461,0 5.192,0 0,-1.731 0,-3.462 0,-5.192 -1.73,0 -3.46,0 -5.192,0 z m -10.927,5.463 c 0,1.732 0,3.462 0,5.192 1.729,0 3.461,0 5.191,0 0,-1.73 0,-3.46 0,-5.192 -1.73,0 -3.462,0 -5.191,0 z m 5.465,0 c 0,1.732 0,3.462 0,5.192 1.729,0 3.459,0 5.189,0 0,-1.73 0,-3.46 0,-5.192 -1.73,0 -3.459,0 -5.189,0 z m 5.462,0 c 0,1.732 0,3.462 0,5.192 1.732,0 3.461,0 5.192,0 0,-1.73 0,-3.46 0,-5.192 -1.73,0 -3.46,0 -5.192,0 z m -10.927,5.467 c 0,1.729 0,3.459 0,5.189 1.729,0 3.461,0 5.191,0 0,-1.73 0,-3.461 0,-5.189 -1.73,0 -3.462,0 -5.191,0 z m 5.465,0 c 0,1.729 0,3.459 0,5.189 1.729,0 3.459,0 5.189,0 0,-1.73 0,-3.461 0,-5.189 -1.73,0 -3.459,0 -5.189,0 z m 5.462,0 c 0,1.729 0,3.459 0,5.189 1.732,0 3.461,0 5.192,0 0,-1.73 0,-3.461 0,-5.189 -1.73,0 -3.46,0 -5.192,0 z"
   id="path1024"
   inkscape:connector-curvature="0"
   style="fill:#ffffff;fill-rule:evenodd" />
			</g>
			<circle
   d="m 136.388,710.64398 c 0,1.22 -0.989,2.209 -2.209,2.209 -1.22,0 -2.209,-0.989 -2.209,-2.209 0,-1.22 0.989,-2.209 2.209,-2.209 1.22,0 2.209,0.989 2.209,2.209 z"
   clip-rule="evenodd"
   cx="134.179"
   cy="710.64398"
   r="2.2090001"
   id="circle1026"
   sodipodi:cx="134.179"
   sodipodi:cy="710.64398"
   sodipodi:rx="2.2090001"
   sodipodi:ry="2.2090001"
   style="fill:#ffffff;fill-rule:evenodd" />
			<circle
   d="m 136.388,721.56201 c 0,1.22 -0.989,2.209 -2.209,2.209 -1.22,0 -2.209,-0.989 -2.209,-2.209 0,-1.22 0.989,-2.209 2.209,-2.209 1.22,0 2.209,0.989 2.209,2.209 z"
   clip-rule="evenodd"
   cx="134.179"
   cy="721.56201"
   r="2.2090001"
   id="circle1028"
   sodipodi:cx="134.179"
   sodipodi:cy="721.56201"
   sodipodi:rx="2.2090001"
   sodipodi:ry="2.2090001"
   style="fill:#ffffff;fill-rule:evenodd" />
			<circle
   d="m 141.853,721.56201 c 0,1.22 -0.98901,2.209 -2.209,2.209 -1.22,0 -2.209,-0.989 -2.209,-2.209 0,-1.22 0.989,-2.209 2.209,-2.209 1.21999,0 2.209,0.989 2.209,2.209 z"
   clip-rule="evenodd"
   cx="139.644"
   cy="721.56201"
   r="2.2090001"
   id="circle1030"
   sodipodi:cx="139.644"
   sodipodi:cy="721.56201"
   sodipodi:rx="2.2090001"
   sodipodi:ry="2.2090001"
   style="fill:#ffffff;fill-rule:evenodd" />
			<circle
   d="m 130.923,721.56201 c 0,1.22 -0.989,2.209 -2.209,2.209 -1.21999,0 -2.209,-0.989 -2.209,-2.209 0,-1.22 0.98901,-2.209 2.209,-2.209 1.22,0 2.209,0.989 2.209,2.209 z"
   clip-rule="evenodd"
   cx="128.714"
   cy="721.56201"
   r="2.2090001"
   id="circle1032"
   sodipodi:cx="128.714"
   sodipodi:cy="721.56201"
   sodipodi:rx="2.2090001"
   sodipodi:ry="2.2090001"
   style="fill:#ffffff;fill-rule:evenodd" />
			<circle
   d="m 141.853,716.15198 c 0,1.21999 -0.98901,2.209 -2.209,2.209 -1.22,0 -2.209,-0.98901 -2.209,-2.209 0,-1.22 0.989,-2.209 2.209,-2.209 1.21999,0 2.209,0.989 2.209,2.209 z"
   clip-rule="evenodd"
   cx="139.644"
   cy="716.15198"
   r="2.2090001"
   id="circle1034"
   sodipodi:cx="139.644"
   sodipodi:cy="716.15198"
   sodipodi:rx="2.2090001"
   sodipodi:ry="2.2090001"
   style="fill:#ffffff;fill-rule:evenodd" />
		</g>
		<path
   stroke-miterlimit="10"
   d="m 121.035,704.366 0.342,23.65 h 25.417 l 0.171,-23.864 -25.93,0.214 z m 22.666,20.412 h -18.887 l -0.286,-17.423 19.173,-0.074 v 17.497 z"
   id="path1036"
   inkscape:connector-curvature="0"
   style="fill:#cfd1d2;stroke:#ffffff;stroke-width:0.25;stroke-miterlimit:10" />
	</g></g>
</svg>